<?xml version="1.0" encoding="UTF-8" standalone="no"?>
<svg width="132px" height="32px" viewBox="0 0 132 32" version="1.1" xmlns="http://www.w3.org/2000/svg" xmlns:xlink="http://www.w3.org/1999/xlink">
    <!-- Generator: Sketch 39 (31667) - http://www.bohemiancoding.com/sketch -->
    <title>logo copy</title>
    <desc>Created with Sketch.</desc>
    <defs></defs>
    <g id="Page-1" stroke="none" stroke-width="1" fill="none" fill-rule="evenodd">
        <g id="Desktop" transform="translate(-47.000000, -181.000000)">
            <g id="logo" transform="translate(47.000000, 181.000000)">
                <g id="Group">
                    <path d="M3.49523659,2.38416389 L30.5118407,8.77250062 C31.4360555,8.96014624 32.1305431,9.63316379 32.1305431,10.1165326 L32.1305431,22.6918589 C32.1305431,23.1690599 31.4384748,23.8309209 30.5546575,23.9996251 L3.51156614,29.9196471 C2.82339537,30.0892411 2.33900236,29.6680249 2.33900236,28.8159467 L2.33900236,3.43488932 C2.33900236,2.59256132 2.80478321,2.19794553 3.46411762,2.37627841 L3.49523659,2.38416389 Z M3.98882365,0.446256825 C2.00340543,-0.0907473969 0.334143195,1.32347403 0.334143195,3.43488932 L0.334143195,28.8159467 C0.334143195,30.9176992 1.98784034,32.3557134 3.96740444,31.866813 L30.9579793,25.9582795 C32.6807012,25.6298146 34.1354022,24.238608 34.1354022,22.6918589 L34.1354022,10.1165326 C34.1354022,8.57338686 32.6910945,7.17372974 30.942471,6.81972306 L3.95770468,0.43837135 L3.98882365,0.446256825 Z" id="Rectangle-2-Copy" fill="#4A4A4A"></path>
                    <path d="M14.3731388,6.81972306 C12.6245152,7.17372974 11.1802075,8.57338686 11.1802075,10.1165326 L11.1802075,22.6918589 C11.1802075,24.238608 12.6349085,25.6298146 14.3841176,25.9637058 L41.3742346,31.8728753 C43.3277694,32.3557134 44.9814665,30.9176992 44.9814665,28.8159467 L44.9814665,3.43488932 C44.9814665,1.32347403 43.3122043,-0.0907473969 41.3267861,0.446256825 L14.3413009,6.82670808 L14.3731388,6.81972306 Z M14.803769,8.77250062 L41.8203731,2.38416389 C42.5108265,2.19794553 42.9766073,2.59256132 42.9766073,3.43488932 L42.9766073,28.8159467 C42.9766073,29.6680249 42.4922143,30.0892411 41.8300729,29.9257095 L14.7874394,24.0050513 C13.8771349,23.8309209 13.1850666,23.1690599 13.1850666,22.6918589 L13.1850666,10.1165326 C13.1850666,9.63316379 13.8795542,8.96014624 14.7719311,8.77948564 L14.803769,8.77250062 Z" id="Rectangle-2-Copy-3" fill="#1D3557"></path>
                </g>
                <path d="M54.961216,8.54399867 C57.6526808,8.51826245 63.4111634,8.41531758 65.1950412,8.41531758 C65.6957789,8.41531758 66.3217009,8.41531758 66.3217009,8.77562462 C66.3217009,8.95577814 66.1965165,9.18740409 65.9774438,9.41903005 C64.0996777,11.5293998 56.6512055,19.3274736 53.8345564,22.1841937 C53.2712266,22.7503904 53.0208577,23.3423234 53.0208577,23.8570478 C53.0208577,24.7835516 53.8971486,25.4784294 55.3054732,25.4784294 L55.3680654,25.4784294 C56.1504679,25.4526932 56.7450938,25.4526932 66.0713321,25.4526932 L68.6689085,25.4526932 C69.451311,25.4526932 69.8268643,25.0151775 69.8268643,24.6033981 C69.8268643,24.2173548 69.4826071,23.8313116 68.7940929,23.8313116 L68.7315007,23.8313116 C66.665958,23.9085202 59.9998884,23.9599926 57.2458314,23.9599926 C55.6184342,23.9599926 55.1802887,23.9599926 55.1802887,23.4967407 C55.1802887,23.3165872 55.3054732,23.1106975 55.5245459,22.8790715 C58.028234,20.3826585 64.9759685,12.8419469 67.9178021,10.0881717 C68.4811319,9.54771113 68.7315007,9.00725057 68.7315007,8.54399867 C68.7315007,7.61749486 67.8239138,6.94835322 66.352997,6.94835322 L66.2904048,6.94835322 C64.4439348,6.97408943 61.721174,6.99982565 59.2174858,6.99982565 C57.5900886,6.99982565 56.0878757,6.97408943 54.961216,6.94835322 L54.9299199,6.94835322 C54.3039979,6.94835322 53.9910369,7.36013269 53.9910369,7.77191216 C53.9910369,8.15795541 54.3039979,8.54399867 54.9299199,8.54399867 L54.961216,8.54399867 Z M89.8890908,24.8092878 C89.8890908,24.4489808 89.5448337,24.1144099 88.9189117,24.1144099 L88.8250234,24.1144099 C88.2616936,24.1401462 86.5091119,24.1401462 84.7565302,24.1401462 C83.0352446,24.1401462 81.313959,24.1401462 80.7819253,24.1144099 C79.1232319,24.0114651 78.4660138,23.4452683 78.3408294,22.4672921 C78.2469411,21.8496229 78.2469411,20.6400207 78.2469411,16.6766432 C78.2469411,16.1619189 78.2782372,16.1619189 82.1589538,16.1619189 C83.786351,16.1619189 85.5389327,16.1619189 86.5091119,16.2133913 L86.5717041,16.2133913 C87.2602183,16.2133913 87.6357715,15.8016119 87.6357715,15.4155686 C87.6357715,15.2354151 87.5418832,14.6434821 86.5717041,14.6692183 C85.945782,14.6949545 84.3183848,14.6949545 82.7222836,14.6949545 C81.1261824,14.6949545 79.5300812,14.6949545 78.9041592,14.6692183 C78.5911982,14.6692183 78.2782372,14.6692183 78.2782372,14.1802302 C78.3095333,12.6617934 78.2782372,10.4999512 78.3408294,9.88228195 C78.4973099,8.31237272 79.4987851,8.31237272 82.6596914,8.31237272 C84.8817146,8.31237272 87.8548442,8.33810893 88.0113247,8.33810893 C88.699839,8.33810893 89.0753922,7.9778019 89.0753922,7.61749486 C89.0753922,7.25718782 88.7311351,6.89688078 88.0739169,6.87114457 C87.6044754,6.84540835 85.9144859,6.81967213 84.1619043,6.81967213 C82.4406187,6.81967213 80.688037,6.84540835 80.0934111,6.87114457 C77.7774996,6.97408943 76.5256555,7.9778019 76.4630633,9.650656 C76.4004711,11.2720377 76.369175,14.6692183 76.369175,17.7318281 C76.369175,19.7649893 76.369175,21.6179969 76.4317672,22.698918 C76.5256555,24.3717721 77.8713879,25.4012208 80.6254448,25.5813743 C81.0322941,25.6071105 82.8787641,25.6071105 84.693938,25.6071105 C86.540408,25.6071105 88.386878,25.6071105 88.7937273,25.5813743 C89.5448337,25.5556381 89.8890908,25.1695948 89.8890908,24.8092878 L89.8890908,24.8092878 Z M112.392413,24.7549558 C112.392413,24.7549558 107.19726,12.9448918 105.131718,8.20942785 C104.724868,7.28292404 103.817282,6.81967213 102.909695,6.81967213 C102.0647,6.81967213 101.188409,7.25718782 100.78156,8.18369163 C99.2793468,11.7352896 95.6177029,19.9966152 93.8651212,24.6548705 C93.8338251,24.7320792 93.802529,24.835024 93.802529,24.9122327 C93.802529,25.3497484 94.3032667,25.6071105 94.7727082,25.6071105 C95.1795575,25.6071105 95.6177029,25.426957 95.7741834,24.9894413 C96.243625,23.7283667 110.107798,24.2688272 110.483351,25.0151775 C110.671128,25.426957 111.077977,25.6071105 111.45353,25.6071105 C111.985564,25.6071105 112.486302,25.2725397 112.486302,24.7835516 C112.486302,24.6548705 112.392413,24.7549558 112.392413,24.7549558 Z M131.764706,24.6548705 C131.764706,24.2688272 131.389153,23.882784 130.731935,23.882784 L130.638046,23.882784 C130.012124,23.9085202 127.946581,23.9342564 126.037519,23.9342564 C121.124031,23.9342564 120.404221,23.8313116 120.279037,22.3128748 C120.247741,21.8238866 120.216444,20.3826585 120.216444,18.5553871 C120.216444,14.7721632 120.310333,9.39329383 120.404221,7.77191216 L120.404221,7.72043973 C120.404221,7.15424295 119.872187,6.84540835 119.340154,6.84540835 C118.80812,6.84540835 118.307382,7.12850673 118.307382,7.69470351 L118.307382,8.26090028 C118.307382,10.8602582 118.182198,16.650907 118.182198,20.2797136 C118.182198,21.2834261 118.182198,22.106985 118.213494,22.6731818 C118.276086,24.474717 119.496634,25.2725397 122.250691,25.4526932 C122.65754,25.4784294 124.566603,25.4784294 126.444369,25.4784294 C128.353431,25.4784294 130.262493,25.4784294 130.669342,25.4526932 C131.420449,25.426957 131.764706,25.0409138 131.764706,24.6548705 L131.764706,24.6548705 Z" id="ZEAL-Copy" fill="#4A4A4A"></path>
            </g>
        </g>
    </g>
</svg>